<?xml version="1.0" encoding="utf-8"?>
<svg xmlns="http://www.w3.org/2000/svg" viewBox="0 0 48 48">
<path stroke="currentColor" stroke-width="2" stroke-linecap="round" stroke-linejoin="round" fill="currentColor" d="M10.3,6.9l-0.2-0.6c-0.8-2,0.2-4.2,2.2-5s4.2,0.2,5,2.2l0.2,0.6l0,0c2.9-0.4,5.8,0.1,8.4,1.2
	c3.8,1.7,6.8,4.7,8.4,8.8l2.6,6.7l0,0c0.7,1.8,1.7,3.3,3.2,4.6c0.4,0.4,1.6,1.2,2.4,1.7c1.2,0.8,1.5,1.4,1.7,1.9
	c0.7,1.8-0.2,3.9-2,4.5l-0.3,0.1L11.8,45.4c-1.8,0.7-3.9-0.2-4.5-2C7,42.6,7,41.8,7.2,41.1c0.1-0.3,0.8-2.6,0.8-3.5
	c0.1-1.8-0.1-3.6-0.7-5.3l0,0l-2.6-6.8C2,18.7,4.5,11,10.3,6.9"/>
<path stroke="currentColor" stroke-width="2" stroke-linecap="round" fill="currentColor" d="M25.3,40.3c1,2.5-0.4,5.2-2.9,6.1l-0.5,0.2c-2.5,1-5.3-0.1-6.2-2.6"/>
</svg>
