<?xml version="1.0" encoding="utf-8"?>
<!-- Generator: Adobe Illustrator 22.0.0, SVG Export Plug-In . SVG Version: 6.00 Build 0)  -->
<svg version="1.1" id="Слой_1" xmlns="http://www.w3.org/2000/svg" xmlns:xlink="http://www.w3.org/1999/xlink" x="0px" y="0px"
	 viewBox="0 0 32 32" style="enable-background:new 0 0 32 32;" xml:space="preserve">
<path fill="currentColor" d="M27.2,0.1H4.8c-2.2,0-4,1.8-4,4v23.8c0,2.2,1.8,4,4,4h22.4c2.2,0,4-1.8,4-4V4.1C31.2,1.9,29.4,0.1,27.2,0.1z M6.3,7.4h16.1
	c0.3,0,0.5,0.3,0.5,0.8S22.7,9,22.4,9H6.3C6,9,5.8,8.6,5.8,8.2C5.8,7.7,6,7.4,6.3,7.4z M25.6,25.4H6.4c-0.4,0-0.6-0.3-0.6-0.8
	s0.2-0.8,0.6-0.8h19.2c0.3,0,0.6,0.3,0.6,0.8S26,25.4,25.6,25.4z M25.6,19.9H6.4c-0.4,0-0.6-0.3-0.6-0.8s0.2-0.8,0.6-0.8h19.2
	c0.3,0,0.6,0.3,0.6,0.8S26,19.9,25.6,19.9z M25.6,14.4H6.4c-0.4,0-0.6-0.3-0.6-0.8s0.2-0.8,0.6-0.8h19.2c0.3,0,0.6,0.3,0.6,0.8
	S26,14.4,25.6,14.4z"/>
</svg>
