<?xml version="1.0" encoding="utf-8"?>
<!-- Generator: Adobe Illustrator 22.0.0, SVG Export Plug-In . SVG Version: 6.00 Build 0)  -->
<svg version="1.1" id="Слой_1" xmlns="http://www.w3.org/2000/svg" xmlns:xlink="http://www.w3.org/1999/xlink" x="0px" y="0px"
	 viewBox="0 0 32 32" style="enable-background:new 0 0 32 32;" xml:space="preserve">
<path fill="currentColor" d="M25.6,23.8H6.4c-0.4,0-0.6,0.3-0.6,0.8s0.2,0.8,0.6,0.8h19.2c0.4,0,0.6-0.3,0.6-0.8S25.9,23.8,25.6,23.8z"/>
<path fill="currentColor" d="M25.6,18.3H6.4c-0.4,0-0.6,0.3-0.6,0.8s0.2,0.8,0.6,0.8h19.2c0.4,0,0.6-0.3,0.6-0.8S25.9,18.3,25.6,18.3z"/>
<path fill="currentColor" d="M25.6,12.8H6.4c-0.4,0-0.6,0.3-0.6,0.8s0.2,0.8,0.6,0.8h19.2c0.4,0,0.6-0.3,0.6-0.8S25.9,12.8,25.6,12.8z"/>
<path fill="currentColor" d="M22.4,7.4H6.3C6,7.4,5.8,7.7,5.8,8.2C5.8,8.6,6,9,6.3,9h16.1c0.3,0,0.5-0.3,0.5-0.8S22.7,7.4,22.4,7.4z"/>
	<path fill="currentColor" d="M27.2,32H4.8c-2.2,0-4.1-1.9-4.1-4.1V4.1C0.7,1.9,2.6,0,4.8,0h22.4c2.2,0,4.1,1.9,4.1,4.1v23.8C31.3,30.1,29.4,32,27.2,32z
		 M4.8,1.2c-1.6,0-2.9,1.3-2.9,2.9v23.8c0,1.6,1.3,2.9,2.9,2.9h22.4c1.6,0,2.9-1.3,2.9-2.9V4.1c0-1.6-1.3-2.9-2.9-2.9H4.8z"/>
</svg>
