<?xml version="1.0" encoding="utf-8"?>
<svg version="1.1" id="Capa_1" xmlns="http://www.w3.org/2000/svg" xmlns:xlink="http://www.w3.org/1999/xlink" x="0px" y="0px"
	 viewBox="0 0 442.8 442.8" style="enable-background:new 0 0 442.8 442.8;" xml:space="preserve">

<g>
	<path fill="currentColor" d="M361.1,18.2H81.8C36.7,18.2,0,54.9,0,100v170c0,45.1,36.7,81.8,81.8,81.8h192.8l69.7,69.7c2.1,2.1,4.9,3.2,7.7,3.2
		c1.4,0,2.8-0.3,4.2-0.8c4.1-1.7,6.7-5.7,6.7-10.1v-62c44.3-1,80-37.3,80-81.8V100C442.8,54.9,406.2,18.2,361.1,18.2z M421,270
		c0,33.1-26.9,60-60,60H352c-6,0-10.9,4.9-10.9,10.9v46.6l-54.3-54.3c-2-2-4.8-3.2-7.7-3.2H81.8c-33.1,0-60-26.9-60-60V100
		c0-33.1,26.9-60,60-60h279.3c33.1,0,60,26.9,60,60V270z"/>
	<path class="message-icon__dots" fill="currentColor" d="M119.2,161.2c-13.5,0-24.5,11-24.5,24.5c0,13.6,11,24.5,24.5,24.5c13.5,0,24.5-11,24.5-24.5
		C143.7,172.2,132.7,161.2,119.2,161.2z"/>
	<path class="message-icon__dots" fill="currentColor" d="M221.4,161.2c-13.5,0-24.5,11-24.5,24.5c0,13.6,11,24.5,24.5,24.5c13.5,0,24.5-11,24.5-24.5
		C245.9,172.2,235,161.2,221.4,161.2z"/>
	<path class="message-icon__dots" fill="currentColor" d="M323.6,161.2c-13.5,0-24.5,11-24.5,24.5c0,13.6,11,24.5,24.5,24.5c13.5,0,24.5-11,24.5-24.5
		C348.2,172.2,337.2,161.2,323.6,161.2z"/>
</g>
</svg>
