<?xml version="1.0" encoding="utf-8"?>
<!-- Generator: Adobe Illustrator 22.0.0, SVG Export Plug-In . SVG Version: 6.00 Build 0)  -->
<svg version="1.1" id="Capa_1" xmlns="http://www.w3.org/2000/svg" xmlns:xlink="http://www.w3.org/1999/xlink" x="0px" y="0px"
	 viewBox="0 0 442.8 442.8" style="enable-background:new 0 0 442.8 442.8;" xml:space="preserve">
<path fill="currentColor" d="M361.1,18.2H81.8C36.7,18.2,0,54.9,0,100v170c0,45.1,36.7,81.8,81.8,81.8h192.8l69.7,69.7c2.1,2.1,4.9,3.2,7.7,3.2
	c1.4,0,2.8-0.3,4.2-0.8c4.1-1.7,6.7-5.7,6.7-10.1v-62c44.3-1,80-37.3,80-81.8V100C442.8,54.9,406.2,18.2,361.1,18.2z M119.2,210.2
	c-13.5,0-24.5-10.9-24.5-24.5c0-13.5,11-24.5,24.5-24.5s24.5,11,24.5,24.5S132.7,210.2,119.2,210.2z M221.4,210.2
	c-13.5,0-24.5-10.9-24.5-24.5c0-13.5,11-24.5,24.5-24.5c13.6,0,24.5,11,24.5,24.5S234.9,210.2,221.4,210.2z M323.6,210.2
	c-13.5,0-24.5-10.9-24.5-24.5c0-13.5,11-24.5,24.5-24.5c13.6,0,24.6,11,24.5,24.5C348.1,199.2,337.1,210.2,323.6,210.2z"/>
</svg>
