<?xml version="1.0" encoding="utf-8"?>
<!-- Generator: Adobe Illustrator 22.0.0, SVG Export Plug-In . SVG Version: 6.00 Build 0)  -->
<svg version="1.1" xmlns="http://www.w3.org/2000/svg" xmlns:xlink="http://www.w3.org/1999/xlink" x="0px" y="0px"
	 viewBox="0 0 141.7 141.7" style="enable-background:new 0 0 141.7 141.7;" xml:space="preserve">

<g>
	<g>
		<path fill="currentColor" d="M71.2,83.4c-21.4,0-38.9-17.4-38.9-38.9S49.7,5.7,71.2,5.7s38.9,17.4,38.9,38.9S92.6,83.4,71.2,83.4z M71.2,13.2
			c-17.3,0-31.4,14.1-31.4,31.4s14.1,31.4,31.4,31.4c17.3,0,31.4-14.1,31.4-31.4S88.5,13.2,71.2,13.2z"/>
	</g>
	<g>
		<path fill="currentColor" d="M14,131.7c0-16.7,13.2-30.3,29.5-30.3h54.9c16.3,0,29.5,13.6,29.5,30.3v10.1h7.3v-10.1c0-20.8-16.5-37.8-36.8-37.8H43.4
			c-20.3,0-36.8,16.9-36.8,37.8v10.1H14V131.7z"/>
	</g>
</g>
</svg>
