<?xml version="1.0" encoding="utf-8"?>
<!-- Generator: Adobe Illustrator 22.0.0, SVG Export Plug-In . SVG Version: 6.00 Build 0)  -->
<svg version="1.1"
	 xmlns="http://www.w3.org/2000/svg" xmlns:xlink="http://www.w3.org/1999/xlink" x="0px" y="0px" viewBox="0 0 32 32"
	 style="enable-background:new 0 0 32 32;" xml:space="preserve">
<g>
	<path fill="currentColor" d="M20.1,23.1c-2,1.5-4.1,2-6.8,2c-6.9,0-12.5-5.6-12.5-12.5S6.4,0.1,13.3,0.1s12.5,5.6,12.5,12.5c0,3.4-0.7,5.4-2.6,7.7
		l8.3,8.3c0.5,0.6,0.3,2.1-0.5,2.9c-0.7,0.7-2.3,0.7-3,0.1L20.1,23.1L20.1,23.1z M13.3,20.8c4.5,0,8.2-4.1,8.2-8.2
		c0-4.6-3.6-8.2-8.2-8.2c-4.2,0-8.2,3.5-8.2,8.2C5.1,16.7,8.7,20.8,13.3,20.8L13.3,20.8z"/>
</g>
</svg>
