<?xml version="1.0" encoding="utf-8"?>
<svg version="1.1" xmlns="http://www.w3.org/2000/svg" viewBox="0 0 512 512">
<path fill="currentColor" d="M483.6,204.2h-20.6c-16.7,0-34.8-17.1-34.8-34.3c0-8.6,4.7-19.3,11.1-25.2l13.3-13c13.1-13,13.1-28,0-41l-30.1-29.9
	c-6-6-11.6-10.4-20.6-10.4s-14.5,3.5-20.6,9.4l-14.8,13.8c-6.1,6.8-16.5,10.4-25.2,10.4c-17.3,0-35-17.1-35-33.7V29.8
	C306.4,11.6,303-0.6,278,0h-41c-20.9-0.6-29.4,11.4-29.4,29.8v20.6c0,16.6-18.3,34.7-35.7,34.7c-8.6,0-19.5-4.7-25.4-11l-13.1-13
	c-6-6.1-11.6-8.4-20.6-8.4c-8.9,0-14.5,2.5-20.6,8.4L62.2,90.8c-13,13-13,28.1,0,40.9l11.6,12.7c6.8,6.1,13.6,16.8,13.6,25.6
	c0,17.3-19.1,34.3-35.9,34.3H31c-18.5-0.1-31,12-31,30.3v20.6v20.6c0,18.2,12.5,30.4,31,30.4h20.6c16.7,0,34.8,17.1,34.8,34.3
	c0,8.6-4.8,19.6-11.5,25.7l-12.7,12.5c-13,13-13,28,0,40.9l28.1,30c6,6.1,13.7,9.4,22.6,9.4s14.5-3.5,20.6-9.4l13.1-13
	c5.7-6.4,16.7-10,25.3-10c17.3,0,34.6,17.1,34.6,33.7v20.6c0,18.2,11.9,30.8,30.3,30.8h41c18.3,0,29.6-12.5,29.6-30.8v-20.6
	c0-16.6,18.2-33.7,35.6-33.7c8.6,0,18.6,2.7,24.8,9.4l12.7,13.7c6.1,6,12.7,9.4,21.6,9.4s14.5-3.5,20.6-9.4l30.1-29
	c13-13,14-29.1,1-42l-13.3-14c-6.5-5.8-11.1-16.1-11.1-24.6c0-17.3,17.1-34.9,33.8-34.9h20.6c18.3,0,28.5-10.8,28.5-29.3v-20.8
	v-20.6C512,216.3,502,204.2,483.6,204.2z M257.3,363.1c-59.8,0-108-48.4-108-108c0-59.6,48.2-108,108-108c59.8,0,108,48.4,108,108
	C365.2,314.7,317,363.1,257.3,363.1z"/>
</svg>
