<?xml version="1.0" encoding="utf-8"?>
<svg version="1.1" xmlns="http://www.w3.org/2000/svg" viewBox="0 0 512 512">
	<path fill="currentColor" d="M257.3,131.6c-34.6,0-64.2,10.4-88.6,34.8s-34.8,53.9-34.8,88.6s10.4,64,34.8,88.6c24.4,24.4,54.1,34.8,88.6,34.8
		c34.6,0,64.2-10.4,88.6-34.8c24.4-24.4,34.8-53.9,34.8-88.6s-10.4-64-34.8-88.6C321.5,142.1,291.9,131.6,257.3,131.6z M257.3,363.1
		c-59.8,0-108-48.4-108-108s48.2-108,108-108s108,48.4,108,108S317,363.1,257.3,363.1z"/>
	<path fill="currentColor" d="M483.6,204.2h-20.6c-16.7,0-34.8-17.1-34.8-34.3c0-8.6,4.7-19.3,11.1-25.2l13.3-13c13.1-13,13.1-28,0-41l-30.1-29.9
		c-6-6-11.6-10.4-20.6-10.4s-14.5,3.5-20.6,9.4l-14.8,13.8c-6.1,6.8-16.5,10.4-25.2,10.4c-17.3,0-35-17.1-35-33.7V29.8
		C306.4,11.6,303-0.6,278,0h-41c-20.9-0.6-29.4,11.4-29.4,29.8v20.6c0,16.6-18.3,34.7-35.7,34.7c-8.6,0-19.5-4.7-25.4-11l-13.1-13
		c-6-6.1-11.6-8.4-20.6-8.4s-14.5,2.5-20.6,8.4L62.2,90.8c-13,13-13,28.1,0,40.9l11.6,12.7c6.8,6.1,13.6,16.8,13.6,25.6
		c0,17.3-19.1,34.3-35.9,34.3H31c-18.5-0.1-31,12-31,30.3v20.6v20.6c0,18.2,12.5,30.4,31,30.4h20.6c16.7,0,34.8,17.1,34.8,34.3
		c0,8.6-4.8,19.6-11.5,25.7l-12.7,12.5c-13,13-13,28,0,40.9l28.1,30c6,6.1,13.7,9.4,22.6,9.4s14.5-3.5,20.6-9.4l13.1-13
		c5.7-6.4,16.7-10,25.3-10c17.3,0,34.6,17.1,34.6,33.7v20.6c0,18.2,11.9,30.8,30.3,30.8h41c18.3,0,29.6-12.5,29.6-30.8v-20.6
		c0-16.6,18.2-33.7,35.6-33.7c8.6,0,18.6,2.7,24.8,9.4l12.7,13.7c6.1,6,12.7,9.4,21.6,9.4s14.5-3.5,20.6-9.4l30.1-29
		c13-13,14-29.1,1-42l-13.3-14c-6.5-5.8-11.1-16.1-11.1-24.6c0-17.3,17.1-34.9,33.8-34.9h20.6c18.3,0,28.5-10.8,28.5-29.3v-20.8
		v-20.6C512,216.3,502,204.2,483.6,204.2z M493.8,255.2v20.4c0,5.7-3.1,10.6-9.8,10.6h-20.6c-13.9,0-27.1,6-37.1,16.2
		c-9.8,10.1-15.3,23.5-15.3,37.5c0,14.6,6,28.1,16.9,38.1l12.9,12.7c4.5,4.6,4.5,12.2,0,16.6l-30.1,30c-2.1,2-5.3,3.2-8.5,3.2
		c-3.2,0-6.5-1.2-8.5-3.2l-12.3-12.3c-10.4-10.9-24-17-38.5-17c-14.1,0-27,5.4-37.1,15.1c-10.2,10-15.7,23.1-15.7,37.1v20.6
		c0,6.6-5.8,12.3-12.1,12.3H237c-6.2,0-11.7-5.7-11.7-12.3v-20.6c0-13.9-5.6-27.1-15.8-37.1c-10.1-9.7-23.4-15.1-37.3-15.1
		c-14.3,0-28.1,6.1-37.9,16.7l-12.6,12.6c-2.1,2-5.3,3.2-8.5,3.2c-3.2,0-6.5-1.1-8.2-2.9l-0.1-0.1l-0.1-0.1l-30.1-30
		c-4.5-4.5-4.5-11.9,0-16.5L87,378.6c11-10.2,17.1-23.9,17.1-38.5c0-14.1-5.4-26.8-15.3-37c-10-10.2-23.2-15.5-37.2-15.5H31
		c-6.8,0-12.5-5.8-12.5-11.9v-20.7v-20.6c0-6.1,5.7-11.9,12.5-11.9h20.6c13.9,0,27.1-5.3,37.1-15.5c9.8-10.1,15.3-23.2,15.3-37.1
		c0-14.6-6.1-28.3-17.1-38.3l-12.5-12.3c-2.9-2.9-3.3-6.4-3.3-8.2c0-1.7,0.4-5.3,3.3-8.2l30-30.1c2.1-2,5.3-3.2,8.5-3.2
		c3.2,0,6.5,1.1,8.2,2.9l0.1,0.1l0.1,0.1l12.7,12.7c10,10.8,23.5,16.7,37.9,16.7c14.1,0,27.1-5.4,37.3-15.1
		c10.2-10,15.9-23.1,15.9-37.1V29.8c0-6.6,5.4-12.3,11.4-12.3h41.1c6.1,0,10.8,5.7,10.8,12.3v20.6c0,13.9,6,27.1,16.2,37.1
		c10.1,9.7,23.5,15.1,37.5,15.1c14.6,0,28.4-6.1,38.6-17l12.3-12.3c2.1-2,5.3-3.2,8.5-3.2c3.2,0,6.5,1.2,8.5,3.1L440,103
		c2.1,2.1,3.5,5.2,3.5,8.2c0,3.1-1.2,6.1-3.3,8.2l-12.9,12.7c-10.8,10-16.9,23.5-16.9,38.1c0,14.1,5.4,26.8,15.3,37
		c10,10.2,23.2,15.5,37.1,15.5h20.6c7.3,0,10,6.8,10.1,12.2L493.8,255.2L493.8,255.2z"/>
</svg>
