<?xml version="1.0" encoding="utf-8"?>
<svg version="1.1" xmlns="http://www.w3.org/2000/svg" xmlns:xlink="http://www.w3.org/1999/xlink" x="0px" y="0px" viewBox="0 0 65 65">
<g>
	<path fill="currentColor" d="M32.7,16.7c-8.7,0-16,7.1-16,16s7.1,16,16,16s16-7.1,16-16S41.4,16.7,32.7,16.7z M32.7,45
		c-6.8,0-12.5-5.7-12.5-12.5S25.9,20,32.7,20c6.8,0,12.5,5.7,12.5,12.5S39.5,45,32.7,45z"/>
	<path fill="currentColor" d="M63.8,26.1l-4.7-1.6c-0.5-1.9-1.2-3.5-2.1-5.2l2.1-4.5c0.2-0.7,0.2-1.4-0.2-2.1l-6.6-6.6
		c-0.5-0.5-1.4-0.7-2.1-0.2L45.6,8c-1.6-0.9-3.3-1.6-5.2-2.1l-1.6-4.7C38.6,0.5,37.9,0,37.2,0h-9.4c-0.7,0-1.4,0.5-1.6,1.2l-1.6,4.7
		c-1.9,0.5-3.5,1.2-5.2,2.1l-4.5-2.1c-0.7-0.2-1.4-0.2-2.1,0.2l-6.6,6.6c-0.5,0.5-0.7,1.4-0.2,2.1L8,19.3C7,21,6.3,22.6,5.8,24.5
		l-4.7,1.6C0.4,26.4,0,27.1,0,27.8v9.4c0,0.7,0.5,1.4,1.2,1.6l4.7,1.6C6.3,42.4,7,44,8,45.7l-2.1,4.5c-0.2,0.7-0.2,1.4,0.2,2.1
		l6.6,6.6c0.5,0.5,1.4,0.7,2.1,0.2l4.5-2.1c1.6,0.9,3.3,1.6,5.2,2.1l1.6,4.7c0.2,0.7,0.9,1.2,1.6,1.2h9.4c0.7,0,1.4-0.5,1.6-1.2
		l1.6-4.7c1.9-0.5,3.5-1.2,5.2-2.1l4.5,2.1c0.7,0.2,1.4,0.2,2.1-0.2l6.6-6.6c0.5-0.5,0.7-1.4,0.2-2.1l-2.1-4.5
		c0.9-1.6,1.6-3.3,2.1-5.2l4.7-1.6c0.7-0.2,1.2-0.9,1.2-1.6v-9.4C65.2,27.1,64.5,26.4,63.8,26.1z M61.7,36l-4.5,1.4
		c-0.5,0.2-0.9,0.7-1.2,1.2c-0.5,2.1-1.4,4.2-2.6,6.1c-0.2,0.5-0.2,1.2,0,1.6l2.1,4.2l-4.9,4.9l-4.2-2.1c-0.5-0.2-1.2-0.2-1.6,0
		c-1.9,1.2-4,1.9-6.1,2.6c-0.5,0.2-0.9,0.5-1.2,1.2l-1.2,4h-7.1l-1.4-4.5c-0.2-0.5-0.7-0.9-1.2-1.2c-2.1-0.5-4.2-1.4-6.1-2.6
		c-0.5-0.2-1.2-0.2-1.6,0l-4.2,2.1l-4.9-4.9l2.1-4.2c0.2-0.5,0.2-1.2,0-1.6c-1.2-1.9-1.9-4-2.6-6.1C8.9,37.7,8.7,37.2,8,37L4,36V29
		l4.5-1.4c0.5-0.2,0.9-0.7,1.2-1.2c0.5-2.1,1.4-4.2,2.6-6.1c0.2-0.5,0.2-1.2,0-1.6l-2.1-4.2L15,9.4l4.2,2.1c0.5,0.2,1.2,0.2,1.6,0
		c1.9-1.2,4-1.9,6.1-2.6c0.5-0.2,0.9-0.5,1.2-1.2l1.4-4.5h6.6l1.4,4.5c0.2,0.5,0.7,0.9,1.2,1.2c2.1,0.5,4.2,1.4,6.1,2.6
		c0.5,0.2,1.2,0.2,1.6,0l4.2-2.1l4.9,4.9l-2.1,4.2c-0.2,0.5-0.2,1.2,0,1.6c1.2,1.9,1.9,4,2.6,6.1c0.2,0.5,0.5,0.9,1.2,1.2l4.5,1.4
		V36H61.7z"/>
</g>
</svg>
