<?xml version="1.0" encoding="utf-8"?>
<svg version="1.1" xmlns="http://www.w3.org/2000/svg" viewBox="0 0 1792 1792">
<path stroke="none" fill="currentColor" d="M1304.5,1107.8L1704,717.9l-554.5-76.8L896,119.8L642.5,641.2L88,717.9l399.5,389.8l-98.6,563.4L896,1406.8l506,264.3
	L1304.5,1107.8z M1792,703.3c0,15.8-9.3,33-28,51.7l-390.9,381.2l92.6,538.5c0.7,5,1.1,12.2,1.1,21.5c0,35.9-14.7,53.8-44.2,53.8
	c-13.6,0-28-4.3-43.1-12.9L896,1483l-483.5,254.2c-15.8,8.6-30.2,12.9-43.1,12.9c-15.1,0-26.4-5.2-33.9-15.6
	c-7.5-10.4-11.3-23.2-11.3-38.2c0-4.3,0.7-11.5,2.2-21.5l92.6-538.5L26.9,755C9,735.6,0,718.4,0,703.3c0-26.6,20.1-43.1,60.3-49.5
	l540.6-78.6l242.3-490C856.9,55.7,874.5,41,896,41s39.1,14.7,52.8,44.2l242.3,490l540.6,78.6C1771.9,660.2,1792,676.7,1792,703.3z"
	/>
</svg>
