<svg xmlns="http://www.w3.org/2000/svg" viewBox="0 0 60 60">
  <path color="#fff" fill="currentColor" data-fill="true" d="M10.2 9.2h43.2v35.3H10.2z"/>
  <path color="#7289DA" fill="currentColor" data-stroke="true" d="M26.2 25.7c-1.7 0-3.1 1.5-3.1 3.4s1.4 3.4 3.1 3.4c1.7 0 3.1-1.5 3.1-3.4s-1.4-3.4-3.1-3.4zm10.9 0c-1.7 0-3.1 1.5-3.1 3.4s1.4 3.4 3.1 3.4c1.7 0 3.1-1.5 3.1-3.4s-1.3-3.4-3.1-3.4z"/>
  <path color="#7289DA" fill="currentColor" data-stroke="true" d="M51.1 0H10.5C7.1 0 4.3 2.8 4.3 6.2v40.5c0 3.4 2.8 6.2 6.2 6.2h34.4l-1.6-5.5 3.9 3.6 3.7 3.4 6.5 5.7V6.2C57.3 2.8 54.5 0 51.1 0zM39.4 39.1s-1.1-1.3-2-2.4c4-1.1 5.5-3.6 5.5-3.6-1.2.8-2.4 1.4-3.5 1.8-1.5.6-3 1-4.4 1.3-2.9.5-5.6.4-7.9 0-1.7-.3-3.2-.8-4.5-1.3-.7-.3-1.5-.6-2.2-1-.1-.1-.2-.1-.3-.1-.1 0-.1-.1-.1-.1-.5-.3-.8-.5-.8-.5s1.5 2.4 5.3 3.5c-.9 1.1-2 2.5-2 2.5-6.7-.2-9.3-4.6-9.3-4.6 0-9.6 4.4-17.5 4.4-17.5 4.4-3.2 8.6-3.1 8.6-3.1l.3.4c-5.5 1.6-8 3.9-8 3.9s.7-.4 1.8-.9c3.2-1.4 5.8-1.8 6.9-1.9.2 0 .3-.1.5-.1 1.9-.2 3.9-.3 6.1-.1 2.9.3 6 1.2 9.1 2.9 0 0-2.4-2.2-7.6-3.8l.5-.4s4.2-.1 8.5 3.1c0 0 4.4 7.8 4.4 17.5 0 0-2.6 4.3-9.3 4.5z"/>
</svg>
