<?xml version="1.0" encoding="utf-8"?>
<svg version="1.1" xmlns="http://www.w3.org/2000/svg" xmlns:xlink="http://www.w3.org/1999/xlink" x="0px" y="0px" viewBox="0 0 60 60">
<rect fill="#ffffff" x="10.2" y="9.2" width="43.2" height="35.3"/>
<g transform="translate(15.000000, 13.000000)">
	<path fill="#7289DA" d="M11.2,12.7c-1.7,0-3.1,1.5-3.1,3.4c0,1.9,1.4,3.4,3.1,3.4c1.7,0,3.1-1.5,3.1-3.4
		C14.3,14.2,12.9,12.7,11.2,12.7z M22.1,12.7c-1.7,0-3.1,1.5-3.1,3.4c0,1.9,1.4,3.4,3.1,3.4c1.7,0,3.1-1.5,3.1-3.4
		C25.2,14.2,23.9,12.7,22.1,12.7z"/>
	<path fill="#7289DA" d="M36.1-13H-4.5c-3.4,0-6.2,2.8-6.2,6.2v40.5c0,3.4,2.8,6.2,6.2,6.2h34.4l-1.6-5.5l3.9,3.6l3.7,3.4l6.5,5.7
		V-6.8C42.3-10.2,39.5-13,36.1-13z M24.4,26.1c0,0-1.1-1.3-2-2.4c4-1.1,5.5-3.6,5.5-3.6c-1.2,0.8-2.4,1.4-3.5,1.8
		c-1.5,0.6-3,1-4.4,1.3c-2.9,0.5-5.6,0.4-7.9,0c-1.7-0.3-3.2-0.8-4.5-1.3c-0.7-0.3-1.5-0.6-2.2-1c-0.1-0.1-0.2-0.1-0.3-0.1
		c-0.1,0-0.1-0.1-0.1-0.1c-0.5-0.3-0.8-0.5-0.8-0.5s1.5,2.4,5.3,3.5c-0.9,1.1-2,2.5-2,2.5c-6.7-0.2-9.3-4.6-9.3-4.6
		c0-9.6,4.4-17.5,4.4-17.5C7,0.9,11.2,1,11.2,1l0.3,0.4c-5.5,1.6-8,3.9-8,3.9s0.7-0.4,1.8-0.9c3.2-1.4,5.8-1.8,6.9-1.9
		c0.2,0,0.3-0.1,0.5-0.1c1.9-0.2,3.9-0.3,6.1-0.1c2.9,0.3,6,1.2,9.1,2.9c0,0-2.4-2.2-7.6-3.8L20.8,1c0,0,4.2-0.1,8.5,3.1
		c0,0,4.4,7.8,4.4,17.5C33.7,21.6,31.1,25.9,24.4,26.1L24.4,26.1z"/>
</g>
</svg>
