<?xml version="1.0" encoding="utf-8"?>
<!-- Generator: Adobe Illustrator 22.0.0, SVG Export Plug-In . SVG Version: 6.00 Build 0)  -->
<svg version="1.1" xmlns="http://www.w3.org/2000/svg" xmlns:xlink="http://www.w3.org/1999/xlink" x="0px" y="0px"
	 viewBox="0 0 24 24" style="enable-background:new 0 0 24 24;" xml:space="preserve">
<path d="M16.7,0H7.3C3.3,0,0,3.3,0,7.3v9.3C0,20.7,3.3,24,7.3,24h9.3c4.1,0,7.3-3.3,7.3-7.3V7.3C24,3.3,20.7,0,16.7,0z M22,16.7
	c0,2.9-2.4,5.3-5.3,5.3H7.3C4.4,22,2,19.6,2,16.7V7.3C2,4.4,4.4,2,7.3,2h9.3C19.6,2,22,4.4,22,7.3V16.7z"/>
<path d="M12,6c-3.3,0-6,2.7-6,6s2.7,6,6,6s6-2.7,6-6S15.3,6,12,6z M12,16c-2.2,0-4-1.8-4-4s1.8-4,4-4s4,1.8,4,4
	C16,14.2,14.2,16,12,16z"/>
<circle cx="18.3" cy="5.7" r="1.3"/>
</svg>
