<svg xmlns="http://www.w3.org/2000/svg" viewBox="0 0 24 24">
  <path color="#fff" fill="currentColor" data-fill="true" d="M16.1 23.1H7.9c-3.8 0-7-3.1-7-7V7.9c0-3.8 3.2-7 7-7h8.2c3.9 0 7 3.2 7 7v8.2c0 3.9-3.1 7-7 7z"/>
  <path color="#000" fill="currentColor" data-stroke="true" d="M16.7 0H7.3C3.3 0 0 3.3 0 7.3v9.3C0 20.7 3.3 24 7.3 24h9.3c4.1 0 7.3-3.3 7.3-7.3V7.3c.1-4-3.2-7.3-7.2-7.3zM22 16.7c0 2.9-2.4 5.3-5.3 5.3H7.3C4.4 22 2 19.6 2 16.7V7.3C2 4.4 4.4 2 7.3 2h9.3c3 0 5.4 2.4 5.4 5.3v9.4z"/>
  <path color="#000" fill="currentColor" data-stroke="true" d="M12 6c-3.3 0-6 2.7-6 6s2.7 6 6 6 6-2.7 6-6-2.7-6-6-6zm0 10c-2.2 0-4-1.8-4-4s1.8-4 4-4 4 1.8 4 4-1.8 4-4 4z"/>
  <circle color="#000" fill="currentColor" data-stroke="true" cx="18.3" cy="5.7" r="1.3"/>
</svg>
