<?xml version="1.0" ?><svg viewBox="125 125 1540 1540" xmlns="http://www.w3.org/2000/svg">
	<defs>
		<linearGradient id="steam-logo-gradient" x1="50%" x2="50%" y1="0%" y2="100%"><stop offset="0%" stop-color="#111D2E"/><stop offset="58.11%" stop-color="#132E62"/><stop offset="100%" stop-color="#1387B8"/></linearGradient>
	</defs>
  <path color="#fff" fill="currentColor" data-fill="true" d="M1355.45 1664.15h-919.5c-169.3 0-307.8-138.6-307.8-308v-920c0-169.4 138.5-308 307.8-308h919.5c169.3 0 307.8 138.6 307.8 308v920c.1 169.4-138.5 308-307.8 308z"/>
	<path fill="url(#steam-logo-gradient)" data-stroke="true" data-icon-stroke-type="gradient" d="M1370 647q0-80-57-136.5t-137-56.5-136.5 57-56.5 136q0 80 56.5 136.5t136.5 56.5 137-56.5 57-136.5zm-610 588q0 83-58 140.5t-140 57.5q-56 0-103-29t-72-77q52 20 98 40 60 24 120-1.5t85-86.5q24-60-1.5-120t-86.5-84l-82-33q22-5 42-5 82 0 140 57.5t58 140.5zm904-819v960q0 119-84.5 203.5t-203.5 84.5h-960q-119 0-203.5-84.5t-84.5-203.5v-153l172 69q20 92 93.5 152t168.5 60q104 0 181-70t87-173l345-252q150 0 255.5-105.5t105.5-254.5q0-150-105.5-255.5t-255.5-105.5q-148 0-253 104.5t-107 252.5l-225 322q-9-1-28-1-75 0-137 37l-297-119v-468q0-119 84.5-203.5t203.5-84.5h960q119 0 203.5 84.5t84.5 203.5zm-247 233q0 100-71 170.5t-171 70.5-170.5-70.5-70.5-170.5 70.5-171 170.5-71q101 0 171.5 70.5t70.5 171.5z"/>
</svg>