<?xml version="1.0" ?>
<svg version="1.1" viewBox="0 0 512 512" xmlns="http://www.w3.org/2000/svg" xmlns:xlink="http://www.w3.org/1999/xlink">
	<g>
		<circle fill="#1E96C8" cx="256" cy="256" r="247"/>
		<g>
			<path fill="#FFFFFF" d="M360.8,159c0.3-0.2,6.7-3.1,12.4,0.7c4.4,3,6.5,8.7,5,14.2c-13.9,65.6-27.9,131.2-41.8,196.8    c-0.1,0.8-0.9,7.1-6.6,10.5c-3.8,2.3-8.6,2.6-12.8,0.8c-1.1-0.5-2.2-1.2-3.2-1.9c-33-24.8-66-49.6-99-74.5l115.1-103.5    c0.3-0.5,1.6-2.1,1.1-3.1c-0.4-0.8-1.8-1.1-3.7-0.8c-1.8,0.2-3.5,0.9-5,1.9c-47.3,29.8-94.5,59.6-141.8,89.4L116.2,270    c-2.7-2-6.5-5.2-6.2-9c0.3-3.5,4-5.9,5.4-6.8C127,247,314.7,176.3,360.8,159z"/>
			<path fill="#A9C9DD" d="M214.8,305.7l-4.1,63.6c1.5-0.1,3.7-0.3,6.2-1.4c3-1.3,5-3.2,6.1-4.4c9.9-9.8,19.8-19.6,29.7-29.4    L214.8,305.7z"/>
			<path fill="#C8DAEA" d="M210.6,369.3c-1.7,0-3.7-0.3-5.3-1.6c-1.9-1.6-2.5-3.9-2.6-4.5c-1.1-4.5-9.9-33.6-22.2-73.6l141.8-89.4    c0.6-0.4,1.4-0.9,2.5-1.3c1.8-0.7,5.2-1.5,6.1-0.2c0.4,0.5,0.2,1.3,0.1,1.6c0,0-0.2,1-1.1,1.9c-1.2,1.2-49.4,44.5-115.1,103.5    L210.6,369.3z"/>
		</g>
	</g>
</svg>