<svg xmlns="http://www.w3.org/2000/svg" version="1.1" viewBox="0 0 512 512">
  <circle cx="256" cy="256" r="256" color="#1E96C8" fill="currentColor" data-stroke="true"/>
  <path style="color:var(--whiteColor)" fill="currentColor" data-fill="true" d="M364.6 155.5c.3-.2 6.9-3.2 12.9.7 4.6 3.1 6.7 9 5.2 14.7-14.4 68-28.9 136-43.3 204-.1.8-.9 7.4-6.8 10.9-3.9 2.4-8.9 2.7-13.3.8-1.1-.5-2.3-1.2-3.3-2-34.2-25.7-68.4-51.4-102.6-77.2l119.3-107.3c.3-.5 1.7-2.2 1.1-3.2-.4-.8-1.9-1.1-3.8-.8-1.9.2-3.6.9-5.2 2-49 30.9-97.9 61.8-147 92.7l-66.6-20.2c-2.8-2.1-6.7-5.4-6.4-9.3.3-3.6 4.1-6.1 5.6-7 11.9-7.6 206.4-80.9 254.2-98.8z"/>
  <path color="#A9C9DD" fill="currentColor" data-fill="true" d="M213.3 307.5l-4.2 65.9c1.6-.1 3.8-.3 6.4-1.5 3.1-1.3 5.2-3.3 6.3-4.6l30.8-30.5-39.3-29.3z"/>
  <path color="#C8DAEA" fill="currentColor" data-fill="true" d="M208.9 373.4c-1.8 0-3.8-.3-5.5-1.7-2-1.7-2.6-4-2.7-4.7-1.1-4.7-10.3-34.8-23-76.3l147-92.7c.6-.4 1.5-.9 2.6-1.3 1.9-.7 5.4-1.6 6.3-.2.4.5.2 1.3.1 1.7 0 0-.2 1-1.1 2-1.2 1.2-51.2 46.1-119.3 107.3l-4.4 65.9z"/>
</svg>
