<svg xmlns="http://www.w3.org/2000/svg" viewBox="0 0 512 512">
  <rect width="512" height="512" rx="70" ry="70" color="#4bf" fill="currentColor" data-stroke="true"/>
  <path style="color:var(--whiteColor)" fill="currentColor" data-fill="true" d="M134.305 191.164c9.771 11.983 47.078 156.678 59.53 183.37 10.87 23.407 40.852 54.353 73.73 32.254 32.86-22.1 142.133-118.863 161.693-233.132 19.544-114.233-131.496-90.304-147.495 9.22 39.987-24.899 61.33 10.118 40.869 49.764-20.425 39.607-39.088 65.44-48.86 65.44-9.754 0-17.258-26.505-28.434-72.832-11.552-47.896-11.481-134.169-59.512-124.388C140.53 110.081 81 183.81 81 183.81l14.217 19.337s29.316-23.968 39.088-11.983z"/>
</svg>
