<svg xmlns="http://www.w3.org/2000/svg" viewBox="0 0 50 50">
  <path color="#54769B" fill="currentColor" data-stroke="true" d="M45.8 0H4.2C1.9 0 0 1.9 0 4.2v41.7C0 48.1 1.9 50 4.2 50h41.7c2.3 0 4.2-1.9 4.2-4.2V4.2C50 1.9 48.1 0 45.8 0z"/>
  <path color="#FFF" fill="currentColor" data-fill="true" d="M26 34c1 0 1-1.4 1-2 0-1 1-2 2-2s2.7 1.7 4 3c1 1 1 1 2 1h3s2-.1 2-2c0-.6-.7-1.7-3-4-2-2-3-1 0-5 1.8-2.5 3.2-4.7 3-5.3-.2-.6-5.3-1.6-6-.7-2 3-2.4 3.7-3 5-1 2-1.1 3-2 3s-1-1.9-1-3c0-3.3.5-5.6-1-6h-3c-1.6 0-3 1-3 1s-1.2 1-1 1c.3 0 2-.4 2 1v2s0 4-1 4-3-4-5-7c-.8-1.2-1-1-2-1h-3c-1 0-1.1.6-1 1 2 5 3.4 8.1 7.2 12.1 3.5 3.6 5.8 3.8 7.8 3.9h1z"/>
</svg>
