<svg version="1" viewBox="0 0 512 512" xmlns="http://www.w3.org/2000/svg">
	<path data-stroke="true" fill="currentColor" stroke="currentColor" stroke-width="10" stroke-linecap="round" stroke-miterlimit="10" d="M486 109v9c-20 0-33 11-40 29L334 404h-10l-59-138c-23 45-49 93-71 138h-11c-33-79-69-157-102-236-9-19-36-50-55-50v-10h116v10c-13 0-38 9-31 24l90 208 55-103c-10-20-43-96-53-115-7-13-26-14-40-14v-10h103v9c-14 1-28 6-22 19l35 75c4-7 25-49 35-72 6-15-3-21-28-21v-10h89v9c-17 1-33 10-42 23l-43 89 50 112 88-203c-6-17-26-20-34-20v-10h92v1z"/>
</svg>