<svg xmlns="http://www.w3.org/2000/svg" viewBox="-50 -85 612 612"><path d="M256 274.1a137.2 137.2 0 1 1 137.1-137c0 75.6-61.5 137-137.1 137zm0-253.7a116.7 116.7 0 0 0 0 233.3 116.7 116.7 0 0 0 0-233.3z" fill="#7f7f7f"/><path d="M493.9 512c-5.6 0-10.2-4.6-10.2-10.2a227.9 227.9 0 0 0-227.6-227.6A227.9 227.9 0 0 0 28.5 501.8c0 5.6-4.6 10.2-10.2 10.2s-10.2-4.6-10.2-10.2c0-66.3 25.8-128.6 72.7-175.4s109.2-72.7 175.4-72.7 128.6 25.8 175.4 72.7 72.7 109.2 72.7 175.4a10.6 10.6 0 0 1-10.4 10.2z" fill="#7f7f7f"/></svg>