<?xml version="1.0" encoding="utf-8"?>
<svg version="1.1" xmlns="http://www.w3.org/2000/svg" viewBox="0 0 181.7 181.7">
	<path fill="#7F7F7F" d="M91.2,103.4c-21.4,0-38.9-17.4-38.9-38.9s17.4-38.8,38.9-38.8s38.9,17.4,38.9,38.9S112.6,103.4,91.2,103.4z
	 M91.2,29.2c-19.3,0-35.4,15-35.4,35.4c0,19.5,16.4,35.4,35.4,35.4c19,0,35.4-15.5,35.4-35.4C126.6,44.9,111.3,29.2,91.2,29.2z"/>
	<path fill="#7F7F7F" d="M30,151.7c0-20.2,17.2-34.3,33.5-34.3h54.9c16.3,0,33.5,14.5,33.5,34.3v10.1h3.3v-10.1
	c0-20.8-16.5-37.8-36.8-37.8h-55c-20.3,0-36.8,16.9-36.8,37.8v10.1H30V151.7z"/>
</svg>
