<svg xmlns="http://www.w3.org/2000/svg" viewBox="0 0 512 512">
	<path d="M490.82,29.52C473.79,15.41,426,8,307.69,1.1,262.88-1.51,177,.68,119.65,6c-53,4.91-84.3,12.33-95.9,22.77l-4.18,3.87-.41,10.13c-.63,15,1,65.92,2.82,87.44,10.86,127.14,42.93,228.47,93,294.07,10,13.17,30.3,34.37,41.79,43.56a217.55,217.55,0,0,0,78.35,40.54c16,4.49,25.28,4.7,39.28,1.15a205.62,205.62,0,0,0,41.16-15.36c73.44-36,125.56-114.18,155-232.33,15.36-61.74,24-136.54,24.14-207.58V32.65ZM470.82,62c0,62.36-8.57,135.18-22.46,191.38-10.35,41.89-20.06,69.36-36.57,102.9-30.61,62.47-73.44,104.36-125.67,123.16-4.18,1.47-7.84,2.72-8.15,2.72s-.42-16.19-.42-36v-36H242l-.21,37-.32,37-10.44-3.55c-19.64-6.58-41.69-18.7-58.3-31.86-10.23-8.15-28.31-26.64-37.29-38.13-56.41-72-88.69-190.66-92.56-340.67l-.73-27.26,4.08-1.78c11.7-4.91,45.86-10.45,84-13.58,52.33-4.18,123.48-6.37,159-4.81,84,3.87,148.87,10.66,176.13,18.39l5.44,1.67Z" fill="currentColor"/>
	<path d="M385.15,151.84c-18.59-9.3-55.89-8.26-72.5,2-5.85,3.55-7.94,6.37-7.94,10.87,0,6.68,9.09,12.95,23.3,16.08,8.88,1.88,30,1.88,40.12,0C383,178,395.6,170,395.6,163.43,395.6,160,390.79,154.66,385.15,151.84Z" fill="currentColor"/>
	<path d="M174.13,130.53c13.27,7.41,49.21,24.55,51.5,24.55a1.57,1.57,0,0,0,1.78-1.68c0-1-1.46-4.91-3.24-8.67-8.88-18.8-25.8-32.17-47.43-37.5-34.47-8.57-62.36-6.79-90.36,5.75-3.55,1.56-6.27,3.44-6.27,4.28,0,1.15.73,1.36,2.82.83,9.3-2.29,16.09-3,29.57-3C136.42,115.07,154.39,119.56,174.13,130.53Z" fill="currentColor"/>
	<path d="M289.67,153.09c2.72-1.25,18.18-8.77,34.27-16.82,31.86-15.77,40-18.59,60.06-20.89,12.75-1.46,33-.11,43.25,2.82,1.05.31,1.78,0,1.78-.94,0-1.67-10.55-6.69-20.89-10.13C375.23,96.47,325.5,103,304.19,120.81c-10.34,8.57-19.85,22-22,31.55C281.31,155.91,282.78,156,289.67,153.09Z" fill="currentColor"/>
	<path d="M347.13,345.31c-.32,0-1.78,2.3-3.14,5C333.55,370.9,301.06,384,259.9,384c-33.22,0-61.95-8.88-76.68-23.61a45.54,45.54,0,0,1-7.31-10c-1.26-2.71-2.72-4.91-3.24-5s-.63,3.13-.42,7.1c1.15,20.06,20.79,40,48.47,49.21a126.43,126.43,0,0,0,58.5,4.8q35.73-5.79,55.16-26.85c8.78-9.4,12.33-16.71,13-26.64C347.55,348.76,347.55,345.31,347.13,345.31Z" fill="currentColor"/>
	<path d="M123.05,151.11C103,160,110.3,174.82,137.57,180.67c9.09,2,31,2,40.11.1,10.45-2.19,20-6.89,22.57-11.17s2.61-6-.31-10.35C190.74,145.57,146.34,140.76,123.05,151.11Z" fill="currentColor"/>
	<path d="M430.28,257.56c-.83,0-24.23,25.59-39,42.72l-6.69,7.63-13.58-.73c-7.42-.32-19-1.15-25.59-1.78s-22.25-1.25-34.69-1.46L288,303.63,281,298c-9.61-7.74-21.21-15.36-23.3-15.36-1.88,0-17.44,10.34-25.28,16.92l-5,4.18-22.15.21c-12.22.21-31.65,1-43.14,2S138.93,307.7,136,307.7h-5.22l-8.88-10.24c-18.18-20.79-35.73-39.9-36.67-39.9a.93.93,0,0,0-.94.94c0,.94,20.79,34.68,33.64,54.53,6.89,10.65,3.55,9.61,36.14,11.49,11.08.63,23.51,1.57,27.69,2,9.61,1.15,49.52.53,52.86-.73,2.82-1.15,14.94-19.74,19.64-30.19,1.56-3.65,3.13-6.58,3.44-6.68s2.2,3.44,4.18,7.52,6.58,12.33,10.24,18.18c6,9.82,6.9,10.86,10.45,11.59,7.52,1.57,47.84.73,78.45-1.46,16.82-1.25,30.71-2.4,30.92-2.61,1.88-2.72,22.46-35.52,29.67-47.12C430.81,260.06,432.06,257.56,430.28,257.56Z" fill="currentColor"/>
</svg>