<?xml version="1.0" encoding="utf-8"?>
<svg xmlns="http://www.w3.org/2000/svg" xmlns:xlink="http://www.w3.org/1999/xlink" viewBox="0 0 139.3 141.7">
<path fill="currentColor" d="M42.8,141.3c-4.2-1.1-7.7-4.2-9.4-8.2c-1.4-3.8-1.3-6.2,0.7-13.7c1.7-7.1,4.2-14.1,7.3-20.7l1.2-2.6H22.3
	c-10.3,0-11.9-0.2-15-1.7c-7.4-3.8-9.5-13.1-4.9-22c1.3-2.2,3-4.1,5-5.7C8,66.4,8,66.4,7.4,65c-1.8-4.1-1.3-9,1.5-14
	c1.1-2,2.4-3.9,4-5.5c0.2,0,0-0.5-0.4-1.1c-1.9-3.1-2.5-6.8-1.7-10.4c0.7-4.1,2.7-7.9,5.6-10.9l1.4-1.3l-0.7-1.6
	c-3-6.8-0.1-14.7,6.5-18c0,0,2.7-1,3.9-1S53.2,1,53.2,1c30,0.1,28.7,0,35.1,2c4,1.2,7.9,2.7,11.7,4.5l3.3,1.5c0.2-0.5,0.4-1,0.5-1.5
	c1-3.3,3.7-6,7-7C112.6,0,113.3,0,122,0c0,0,7,0,8.3,0s3,1,3,1c2.3,1,4.1,2.8,5.2,5c0,0,0.8,1.5,0.8,2.7s0,76.8,0,77.8
	s-0.8,3.6-0.8,3.6c-1.2,2.3-1.9,3.6-3.2,4.2s-3.7,0.8-3.7,0.8l-9.6,0.1c-11,0-11.7,0-14.5-2.2c-1.4-1-3.5-3.8-3.5-4.6
	c0-0.3-0.1-0.5-0.3-0.5l-8.2,3.6l-2.8,1.2c-2.3,0.9-4.6,2.1-6.6,3.6c-12.3,7.8-21.3,19.9-25.2,34c-1.7,6.1-5,9.7-10.4,11
	C47.9,141.8,45.3,141.8,42.8,141.3L42.8,141.3z M51.3,135.9c1.9-0.9,2.5-1.4,3.5-3.3c0.5-1.2,1-2.4,1.3-3.6
	c2.1-7.6,6.6-15.7,11.4-22c4-5,8.6-9.5,13.8-13.3l2.7-1.9c2-1.3,4.1-2.4,6.3-3.4l11.3-5l1.7-1V48.8l0.1-33.8l-1.4-0.9
	c-5.4-2.9-11.1-5.2-17-6.9c0,0-2.6-0.9-4.2-0.9s-26.3,0-26.3,0C27.6,6,27.5,6,26,6.6c-1.2,0.4-2.2,1.1-3.1,2c-1.6,2.6-1.7,3-1.7,6
	C21,16,21.3,17.5,22,18.8l0.8,1.8h15c15.5,0,15.8,0,16.4,0.5c0.8,0.8,0.8,3.1,0,3.9c-0.6,0.5-1,0.5-16.8,0.5H21.1L20,26.3
	c-3.1,2.2-5,7.8-4.5,11.8c0.2,1.7,0.8,3.3,1.8,4.7l0.7,1h18.2c17.4,0,19.2,0,19.6,0.5c0.7,0.8,0.7,3.1-0.1,3.8c0,0-0.1,0.1-0.1,0.1
	c-0.7,0.6-1,0.6-20,0.6H16.3L15.2,50c-1.8,2-2.2,3.4-3.1,6c-1.1,2.9-0.8,6,0.7,8.7l0.4,0.6h21.4c22,0,22.4,0,23,0.6
	c0.8,0.7,0.8,2.8,0.2,3.5c-0.1,0.1-0.2,0.2-0.3,0.3c-0.8,0.6-1,0.6-23.8,0.6c-19.4,0-22,0-22.7,0.4c-2.4,1.3-4.9,4.5-5.7,8.5
	c-1.2,6.3,2,10.5,8,11.6c1,0.1,6.8,0.2,17.2,0.2c0,0,15.6-0.2,16.8,0s1.5,1.7,1.5,1.7c0.3,1.5-0.1,1.8-0.3,3
	c-4.4,8.1-7.7,16.8-9.8,25.8c-1.4,5.7-1.5,7.8-0.4,10.1c1,2.7,2.3,3.7,5,4.6c2.6,0.7,5.4,0.6,8-0.4V135.9z M134.5,9.2
	c0-1.2-1.2-2.7-2-3.3c-0.6-0.6-1.4-0.8-2.2-0.8h-8.9c-9.1,0-9.4,0-10.5,0.6c-0.7,0.4-1.4,0.9-1.9,1.5c-1.7,2-0.6-1.5-0.6,40.2
	c0,27.9,0,38.3,0.3,39.4c0.6,1.7,0.9,2.1,2.5,2.8c1.4,0.7,1.6,0.7,10.2,0.7s8.9,0,10.3-0.7c1.6-0.8,1.9-2.1,2.5-3.8
	c0.2-0.7,0.3-13,0.2-38.6"/>
</svg>
