<?xml version="1.0" encoding="utf-8"?>
<svg version="1.1" xmlns="http://www.w3.org/2000/svg" xmlns:xlink="http://www.w3.org/1999/xlink" viewBox="0 0 128 128">
	<path fill="currentColor" d="M103.3,128H27.5c-5.5,0-10-4.5-10-10V10.1c0-5.5,4.5-10,10-10h44.1c4.8,0,11.3,2.7,14.7,6.1L107.2,27
		c3.4,3.4,6.1,9.9,6.1,14.7V118C113.3,123.5,108.8,128,103.3,128z M27.5,4.7c-3,0-5.4,2.4-5.4,5.4V118c0,3,2.4,5.4,5.4,5.4h75.8
		c3,0,5.4-2.4,5.4-5.4V41.7c0-3.6-2.2-9-4.8-11.5L83.1,9.5c-2.5-2.5-7.9-4.8-11.5-4.8H27.5z"/>
	<path fill="currentColor" d="M103.3,36.4H87c-5.5,0-10-4.5-10-10V10.1c0-4.6,2.5-6.3,4.6-6.3c1.6,0,3.2,0.8,4.8,2.4L107.2,27
		c2.9,2.9,2.5,5.2,2.1,6.4C108.8,34.5,107.4,36.4,103.3,36.4z M81.8,8.5c-0.1,0.2-0.2,0.7-0.2,1.6v16.3c0,3,2.4,5.4,5.4,5.4h16.3
		c0.9,0,1.3-0.1,1.6-0.2c-0.1-0.2-0.4-0.7-1-1.3L83.1,9.5C82.5,8.8,82.1,8.6,81.8,8.5z"/>
	<path fill="currentColor" d="M95.2,78H35.3C34,78,33,77,33,75.7s1-2.3,2.3-2.3h59.9c1.3,0,2.3,1,2.3,2.3S96.4,78,95.2,78z"/>
	<path fill="currentColor" d="M95.2,56.2H35.3c-1.3,0-2.3-1-2.3-2.3c0-1.3,1-2.3,2.3-2.3h59.9c1.3,0,2.3,1,2.3,2.3
		C97.5,55.1,96.4,56.2,95.2,56.2z"/>
	<path fill="currentColor" d="M67.3,36.4h-32c-1.3,0-2.3-1-2.3-2.3s1-2.3,2.3-2.3h32c1.3,0,2.3,1,2.3,2.3S68.6,36.4,67.3,36.4z"/>
	<path fill="currentColor" d="M95.2,98.8H35.3c-1.3,0-2.3-1-2.3-2.3c0-1.3,1-2.3,2.3-2.3h59.9c1.3,0,2.3,1,2.3,2.3
		C97.5,97.8,96.4,98.8,95.2,98.8z"/>
</svg>
