<?xml version="1.0" encoding="utf-8"?>
<!-- Generator: Adobe Illustrator 22.0.0, SVG Export Plug-In . SVG Version: 6.00 Build 0)  -->
<svg version="1.1" id="Layer_1" xmlns="http://www.w3.org/2000/svg" xmlns:xlink="http://www.w3.org/1999/xlink" x="0px" y="0px"
	 viewBox="0 0 64 64" style="enable-background:new 0 0 64 64;" xml:space="preserve">
<g>
	<g id="Icon-Location" transform="translate(232.000000, 376.000000)">
		<path d="M-200-312l-1.2-1.5c-0.8-1.1-21.5-25.3-21.5-39.8c0-12.6,10.3-22.7,22.7-22.7c12.4,0,22.7,10.3,22.7,22.7
			c0,14.5-20.7,38.8-21.5,39.8L-200-312L-200-312z M-200-370.9c-10.8,0-17.5,6.8-17.5,17.5c0,11.4,13,28.7,17.5,34.3
			c4.5-5.5,17.5-22.8,17.5-34.3C-182.6-364.1-189.2-370.9-200-370.9L-200-370.9z"/>
		<path d="M-200-343.6c-4.7,0-9.7-4.9-9.7-9.7c0-4.7,4.9-9.7,9.7-9.7s9.7,4.9,9.7,9.7
			C-190.4-348.5-195.3-343.6-200-343.6L-200-343.6z M-200-358.7c-3,0-5.4,2.4-5.4,5.4c0,3,2.4,5.4,5.4,5.4s5.4-2.4,5.4-5.4
			C-194.6-356.2-197.1-358.7-200-358.7L-200-358.7z"/>
	</g>
</g>
</svg>
