<?xml version="1.0" encoding="utf-8"?>
<svg version="1.1" xmlns="http://www.w3.org/2000/svg" viewBox="0 0 64 64">
<path stroke="currentColor" stroke-width="3" fill="none" d="M31.9,1.6c10.4,0,24.4,8.6,24.4,23.2c0,12.5,0,25.6,0,29.9c0,0.8,0.2,2.4-0.6,3.1c-0.5,0.5-1.1,0.3-1.8,0.1
	c-1.5-0.4-3-1.2-6.1-1.2c-4.5,0-8.6,5.8-16,5.8s-8.7-6.1-16.2-5.7c-2.6,0.1-4.7,1.1-5.4,1.3c-0.7,0.2-1,0.2-1.5,0
	c-0.8-0.2-0.8-2.2-0.8-3.3c0-5.8,0-23.1,0-31.8C8.1,12.7,21.3,1.6,31.9,1.6z"/>
<g stroke="none" fill="currentColor">
	<circle cx="21.4" cy="24.4" r="5.3"/>
	<circle cx="42.4" cy="24.4" r="5.3"/>
</g>
</svg>
