<?xml version="1.0" encoding="utf-8"?>
<svg version="1.1" xmlns="http://www.w3.org/2000/svg" viewBox="0 0 64 64">
<g stroke-width="3" stroke="currentColor" fill="none">
	<path class="st0" d="M31.9,1.6c10.4,0,24.4,8.6,24.4,23.2c0,12.5,0,25.6,0,29.9c0,0.8,0.2,2.4-0.6,3.1c-0.5,0.5-1.1,0.3-1.8,0.1
		c-1.5-0.4-3-1.2-6.1-1.2c-4.5,0-8.6,5.8-16,5.8s-8.7-6.1-16.2-5.7c-2.6,0.1-4.7,1.1-5.4,1.3s-1,0.2-1.5,0c-0.8-0.2-0.8-2.2-0.8-3.3
		c0-5.8,0-23.1,0-31.8C8.1,12.7,21.3,1.6,31.9,1.6z"/>
	<line class="st1" x1="17.5" y1="20.5" x2="25.1" y2="28.1"/>
	<line class="st1" x1="17.5" y1="28.1" x2="25.1" y2="20.5"/>
	<line class="st1" x1="38.6" y1="20.6" x2="46.2" y2="28.2"/>
	<line class="st1" x1="38.6" y1="28.2" x2="46.2" y2="20.6"/>
	<line class="st1" x1="20.3" y1="43.1" x2="43.4" y2="43.1"/>
	<path class="st1" d="M31.7,43.9c0,0-0.8,3.9,3.5,3.9s3.4-3.9,3.4-3.9"/>
</g>
</svg>
