<svg xmlns="http://www.w3.org/2000/svg" viewBox="0 0 141.73 59.1">
	<path fill="currentColor" d="M109.17,41.31c-16,0-26.28,11.21-37.23,23.08l-1.08,1.16c-.36-.38-.73-.78-1.08-1.17C58.84,52.52,48.5,41.31,32.56,41.31,14.6,41.31,0,54.57,0,70.86s14.61,29.55,32.56,29.55c16.32,0,26.9-11.64,38.09-24l.22-.24.21.23c11.19,12.33,21.76,24,38.09,24,18,0,32.56-13.26,32.56-29.55S127.12,41.31,109.17,41.31ZM65.3,71.6C54.35,83.66,45.69,93.19,32.56,93.19c-14,0-25.34-10-25.34-22.33S18.58,48.53,32.56,48.53c12.78,0,21.22,9.15,31.91,20.74.5.54,1,1.08,1.49,1.61Zm43.87,21.59C96,93.19,87.38,83.66,76.42,71.6l-.65-.71,1.48-1.61c10.69-11.59,19.13-20.75,31.92-20.75,14,0,25.34,10,25.34,22.33S123.14,93.19,109.17,93.19Z" transform="translate(0 -41.31)"/>
</svg>