<?xml version="1.0" encoding="utf-8"?>
<svg version="1.1" xmlns="http://www.w3.org/2000/svg" viewBox="0 0 141.7 141.7">
	<g fill="currentColor">
		<path d="M71.2,83.4c-21.4,0-38.9-17.4-38.9-38.9S49.7,5.7,71.2,5.7s38.9,17.4,38.9,38.9S92.6,83.4,71.2,83.4z M71.2,12.2
			c-19,0-32.9,15.1-32.9,32.4s15.6,32.7,32.9,32.7s32.9-13.4,32.9-32.7C104.1,25.5,88.5,12.2,71.2,12.2z"/>
		<path d="M13,131.7c0-16.7,14.2-31.3,30.5-31.3h54.9c16.3,0,31.5,14.6,31.5,31.3v10.1h5.3v-10.1c0-20.8-16.5-37.8-36.8-37.8h-55
			c-20.3,0-36.8,16.9-36.8,37.8v10.1H13C13,141.8,13,131.7,13,131.7z"/>
	</g>
</svg>
