<?xml version="1.0" encoding="utf-8"?>
<svg version="1.1" xmlns="http://www.w3.org/2000/svg" viewBox="0 0 141.7 141.7">
<g fill="currentColor">
	<path d="M71.2,85.4c-21.4,0-40.9-19.4-40.9-40.9S49.7,3.7,71.2,3.7s40.9,19.4,40.9,40.9S92.6,85.4,71.2,85.4z M71.2,12.2
		c-19,0-32.9,15.1-32.9,32.4s15.6,32.7,32.9,32.7s32.9-13.4,32.9-32.7C104.1,25.5,88.5,12.2,71.2,12.2z"/>
	<path d="M15,131.7c0-16.7,12.2-29.3,28.5-29.3h54.9c16.3,0,29.5,12.6,29.5,29.3v10.1h7.3v-10.1c0-20.8-16.5-37.8-36.8-37.8h-55
		c-20.3,0-36.8,16.9-36.8,37.8v10.1H15V131.7z"/>
</g>
</svg>
