<?xml version="1.0" encoding="utf-8"?>
<svg version="1.1" xmlns="http://www.w3.org/2000/svg" viewBox="0 0 67 67">
	<g fill="currentColor">
		<path d="M64.5,65.5h-62c-0.6,0-1-0.5-1-1v-62c0-0.6,0.5-1,1-1h62c0.6,0,1,0.5,1,1v62C65.5,65,65,65.5,64.5,65.5z M4,63h59.1V4H4V63
			z"/>
		<path d="M63.7,54.4L48,36.4L34.2,50.1c-0.4,0.4-1.1,0.4-1.5,0L32.6,50L17,30.4L3.3,47.9l-1.6-2.7l14.5-18.6
			c0.2-0.3,0.5-0.4,0.8-0.4l0,0c0.3,0,0.6,0.1,0.8,0.4l15.8,19.7l13.6-13.6c0.2-0.2,0.5-0.3,0.7-0.3c0.3,0,0.6,0.1,0.7,0.3l16.5,18.6
			L63.7,54.4z"/>
		<path d="M41.8,30.4c-5.1,0-9.3-4.2-9.3-9.3s4.2-9.3,9.3-9.3s9.3,4.2,9.3,9.3S46.9,30.4,41.8,30.4z M41.8,14.7
			c-3.6,0-6.5,2.6-6.5,6.4c0,3.4,3.2,6.5,6.5,6.5c3.5,0,6.5-3,6.5-6.5C48.3,17.3,45.5,14.7,41.8,14.7z"/>
	</g>
</svg>
