<?xml version="1.0" encoding="utf-8"?>
<svg version="1.1" xmlns="http://www.w3.org/2000/svg" xmlns:xlink="http://www.w3.org/1999/xlink" x="0px" y="0px" viewBox="0 0 64 64">
	<path fill="currentColor" d="M63,64H1c-0.6,0-1-0.5-1-1V1c0-0.6,0.5-1,1-1H63c0.6,0,1,0.5,1,1V63C64,63.5,63.5,64,63,64z M2.1,61.9h59.9V2.1H2.1V61.9z"
		/>
	<path fill="currentColor" d="M62.2,51.3L46.5,33.5L32.7,47.2c-0.4,0.4-1.1,0.4-1.5,0c0,0-0.1-0.1-0.1-0.1L15.5,27.5L1.8,45l-1.6-1.3l14.5-18.6
		c0.2-0.3,0.5-0.4,0.8-0.4l0,0c0.3,0,0.6,0.1,0.8,0.4l15.8,19.7l13.6-13.6c0.2-0.2,0.5-0.3,0.7-0.3c0.3,0,0.6,0.1,0.7,0.3l16.5,18.6
		L62.2,51.3z"/>
	<path fill="currentColor" d="M40.3,28.9c-5.1,0-9.3-4.2-9.3-9.3s4.2-9.3,9.3-9.3s9.3,4.2,9.3,9.3S45.4,28.9,40.3,28.9z M40.3,12.4c-4,0-7.2,3.2-7.2,7.2
		s3.2,7.2,7.2,7.2s7.2-3.2,7.2-7.2S44.2,12.4,40.3,12.4z"/>
</svg>
