<?xml version="1.0" encoding="utf-8"?>
<svg version="1.1" xmlns="http://www.w3.org/2000/svg" viewBox="0 0 64 64">
	<path stroke="none" fill="currentColor" d="M32.7,47.2c-0.4,0.4-1.1,0.4-1.5,0l-0.1-0.1L15.5,27.5L0,47.3V63c0,0.5,0.4,1,1,1h62c0.5,0,1-0.5,1-1v-9.7L46.5,33.5
		L32.7,47.2z"/>
	<circle stroke="none" fill="currentColor" cx="40.3" cy="19.6" r="7.2"/>
	<path stroke="none" fill="currentColor" d="M63,0H1C0.5,0,0,0.4,0,1v43l14.7-18.9c0.2-0.3,0.5-0.4,0.8-0.4s0.6,0.1,0.8,0.4l15.8,19.7l13.6-13.6
		c0.2-0.2,0.5-0.3,0.7-0.3c0.3,0,0.6,0.1,0.7,0.3L64,50.3V1C64,0.5,63.6,0,63,0z M40.3,28.9c-5.1,0-9.3-4.2-9.3-9.3
		c0-5.1,4.2-9.3,9.3-9.3c5.1,0,9.3,4.2,9.3,9.3C49.6,24.7,45.4,28.9,40.3,28.9z"/>
</svg>
