<?xml version="1.0" encoding="utf-8"?>
<svg version="1.1" xmlns="http://www.w3.org/2000/svg" viewBox="0 0 67 67">
	<g fill="currentColor">
		<path d="M64.5,65.5h-62c-0.6,0-1-0.5-1-1v-62c0-0.6,0.5-1,1-1h62c0.6,0,1,0.5,1,1v62C65.5,65,65,65.5,64.5,65.5z M3.4,63.6h60.3
			V3.4H3.4V63.6z"/>
		<path d="M63.7,53.4L48,35.6L34.2,49.3c-0.4,0.4-1.1,0.4-1.5,0l-0.1-0.1L17,29.6L3.3,47.1l-1.6-1.9l14.5-18.6
			c0.2-0.3,0.5-0.4,0.8-0.4l0,0c0.3,0,0.6,0.1,0.8,0.4l15.8,19.7l13.6-13.6c0.2-0.2,0.5-0.3,0.7-0.3c0.3,0,0.6,0.1,0.7,0.3l16.5,18.6
			L63.7,53.4z"/>
		<path d="M41.8,30.4c-5.1,0-9.3-4.2-9.3-9.3s4.2-9.3,9.3-9.3s9.3,4.2,9.3,9.3S46.9,30.4,41.8,30.4z M41.8,14.3c-3.8,0-6.9,3-6.9,6.8
			c0,3.6,3.4,6.9,6.9,6.9c3.8,0,6.9-3.1,6.9-6.9S45.7,14.3,41.8,14.3z"/>
	</g>
</svg>
