<svg xmlns="http://www.w3.org/2000/svg" viewBox="0 0 46.98 47.1">
	<path fill="none" stroke="currentColor" stroke-linecap="round" stroke-linejoin="round" stroke-width="2" d="M12.69,37.05l4-4L26.6,43a2.13,2.13,0,0,0,.31-.29,5.92,5.92,0,0,0,1.32-2,6.22,6.22,0,0,0,.44-2.29,6.38,6.38,0,0,0-.3-1.84A13.87,13.87,0,0,0,27.59,35a10.36,10.36,0,0,1-.94-5.11c.09-.85.61-1.23,1.18-1.8L29,26.92l1.38-1.38L31.87,24l1.58-1.58L35,20.91l1.35-1.34,1.06-1.07.78-.77a1.17,1.17,0,0,1,.66-.23,7,7,0,0,1,.78-.11,6.7,6.7,0,0,1,1.55.09,7.37,7.37,0,0,1,1.16.33,6.34,6.34,0,0,1,.92.51,2.45,2.45,0,0,0,2.3.12,2.39,2.39,0,0,0,.74-.51,2.53,2.53,0,0,0,0-3.58L43.9,12,36,4l-2.31-2.3a2.57,2.57,0,0,0-3.58,0,2.56,2.56,0,0,0-.54,2.75,2,2,0,0,0,.27.47,4.52,4.52,0,0,1,.58,1.42,6,6,0,0,1,.19,1.47,5.83,5.83,0,0,1-.07,1,1.74,1.74,0,0,1-.3.93l-1.07,1.07L28,12l-1.42,1.42L25,15,23.4,16.59l-1.5,1.49-1.29,1.3-1,1a2.12,2.12,0,0,1-1.14.8,10,10,0,0,1-5.9-1,6.25,6.25,0,0,0-3-.82,6.14,6.14,0,0,0-4.27,1.77c-.09.1-.2.21-.28.32l10,10-4,4" transform="translate(-1.02 0)"/>
	<polyline fill="none" stroke="currentColor" stroke-linecap="round" stroke-linejoin="round" stroke-width="2" points="14.01 31.44 10.04 35.41 4.85 40.6 1 46.1 6.48 42.24 11.67 37.05 15.64 33.08"/>
	<polyline fill="none" stroke="currentColor" stroke-linecap="round" stroke-linejoin="round" stroke-width="2" points="25.59 43.02 15.64 33.08 14.01 31.44 3.98 21.41"/>
	</svg>