<?xml version="1.0" encoding="utf-8"?>
<!-- Generator: Adobe Illustrator 22.0.0, SVG Export Plug-In . SVG Version: 6.00 Build 0)  -->
<svg version="1.1" xmlns="http://www.w3.org/2000/svg" xmlns:xlink="http://www.w3.org/1999/xlink" x="0px" y="0px"
	 viewBox="0 0 512 512" style="enable-background:new 0 0 512 512;" xml:space="preserve">
<g>
	<path fill="currentColor" d="M3,263.2c-4-4.2-3.9-10.9,0.3-14.9l182.5-173c4.2-4,11.9-3.9,15.9,0.3c4,4.2,3.9,12.9-0.3,16.9l-183.5,171
		c-2,2-3.7,4-6.3,4C8.9,267.5,5.1,265.5,3,263.2z"/>
	<path fill="currentColor" d="M185.7,439.5L3.2,263.5c-3-3-4-7.5-2.4-11.5s6.5-8.6,10.8-8.6h317.8c100.8,0,182.7,84,182.7,184.7v3.9
		c0,5.9-5.8,10.5-11.6,10.5c-5.8,0-11.5-4.7-11.5-10.5v-3.8c0-89.1-70.5-159.6-159.6-159.6H40.7l161.7,154.9
		c4.2,4,4.3,11.7,0.3,15.9c-2.1,2.1-5.8,3.2-8.6,3.2C191.5,442.6,187.9,441.6,185.7,439.5z"/>
</g>
</svg>
