<svg xmlns="http://www.w3.org/2000/svg" viewBox="0 0 64 64">
	<g stroke="none" fill="currentColor">
		<path d="M63.17,64H11.66a.83.83,0,0,1-.83-.83V11.66a.83.83,0,0,1,.83-.83H63.17a.83.83,0,0,1,.83.83V63.17A.9.9,0,0,1,63.17,64Zm-50.6-1.74H62.34V12.57H12.57Z"/>
		<path d="M62.5,53.45l-13-14.79L38,50a.9.9,0,0,1-1.24,0L36.67,50l-13-16.29L12.32,48.21,11,47.13,23,31.68a.76.76,0,0,1,.66-.33h0a.76.76,0,0,1,.67.33L37.5,48.05l11.3-11.3a.86.86,0,0,1,.58-.25.63.63,0,0,1,.58.25L63.67,52.2Z"/>
		<path d="M44.31,34.84A7.73,7.73,0,1,1,52,27.11,7.77,7.77,0,0,1,44.31,34.84Zm0-13.71a6,6,0,1,0,6,6A6,6,0,0,0,44.31,21.13Z"/>
		<path d="M1.74,52.33V1.74s49.86,0,50.65,0,.78-.91.78-.91A.83.83,0,0,0,52.34,0H.83A.83.83,0,0,0,0,.83V52.34a.87.87,0,0,0,.93.83A.79.79,0,0,0,1.74,52.33Z"/>
		<path d="M7.16,57.74V7.16H57.8c.85,0,.79-.92.79-.92a.84.84,0,0,0-.83-.83H6.24a.84.84,0,0,0-.83.83V57.76a.87.87,0,0,0,.93.83A.8.8,0,0,0,7.16,57.74Z"/>
	</g>
</svg>