<svg xmlns="http://www.w3.org/2000/svg" viewBox="0 0 64 64">
	<g stroke="none" fill="currentColor">
		<path d="M38,50a.9.9,0,0,1-1.24,0h-.09l-13-16.29L10.83,50.11V63.17a.83.83,0,0,0,.83.83H63.17a.9.9,0,0,0,.83-.83v-8L49.5,38.66Z"/>
		<path d="M63.17,10.83H11.66a.83.83,0,0,0-.83.83V47.31L23,31.68a.84.84,0,0,1,1.33,0L37.5,48.05l11.3-11.3a.88.88,0,0,1,.58-.25.62.62,0,0,1,.58.25L64,52.58V11.66A.83.83,0,0,0,63.17,10.83Zm-18.86,24A7.73,7.73,0,1,1,52,27.07v0A7.77,7.77,0,0,1,44.31,34.84Z"/>
		<circle cx="44.31" cy="27.13" r="6"/>
		<path d="M3.53,53.19,3.49,4A.45.45,0,0,1,4,3.54l49.21,0V.83A.83.83,0,0,0,52.34,0H.83A.83.83,0,0,0,0,.83V52.34a.87.87,0,0,0,.91.83S3.53,53.21,3.53,53.19Z"/>
		<path d="M9.1,58.61V9.88A.93.93,0,0,1,10,9H58.59V6.24a.84.84,0,0,0-.83-.83H6.24a.84.84,0,0,0-.83.83V57.76a.87.87,0,0,0,.91.83h0C6.78,58.6,9.11,58.63,9.1,58.61Z"/>
	</g>
</svg>